# xmcd CD database file
#
# Track frame offsets:
#	150
#	25199
#	54165
#	78758
#	107110
#	126727
#	146149
#	167071
#	191148
#	216970
#	238068
#
# Disc length: 3334 seconds
#
# Revision: 0
# Processed by: cddbd v1.5.2PL0 Copyright (c) Steve Scherf et al.
# Submitted via: CDex 1.70beta3
#
DISCID=9f0d040b
DTITLE=Kiko Loureiro - Universo Inverso -Introducing The Kiko Loureiro Brazilian Jazz Group's Point of View
DYEAR=2006
DGENRE=Jazz
TTITLE0=Feijão de Corda
TTITLE1=Ojos Verdes
TTITLE2=Havana
TTITLE3=Anastácia
TTITLE4=Monday Mourning
TTITLE5=Arcos da Lapa
TTITLE6=Samba da Elisa
TTITLE7=Camino a Casa
TTITLE8=Realidade Paralela
TTITLE9=Recuerdos
TTITLE10=Espera aí! (Bonus Track)
EXTD=YEAR: 2006
EXTT0=
EXTT1=
EXTT2=
EXTT3=
EXTT4=
EXTT5=
EXTT6=
EXTT7=
EXTT8=
EXTT9=
EXTT10=
PLAYORDER=
